D:\school\WTK\thesis\model\3dpredictsim\Results\debug_batch\Pog_s1_tmt_bCst_d00_k500_ig24_act_TTC_GRF.mot
nRows=17
nColumns=19

name D:\school\WTK\thesis\model\3dpredictsim\Results\debug_batch\Pog_s1_tmt_bCst_d00_k500_ig24_act_TTC_GRF.mot
datacolumns 19
datarows 17
range 0.6762733405 0.8926808095
endheader
time 	ground_force_vx	ground_force_vy	ground_force_vz	ground_force_px	ground_force_py	ground_force_pz	1_ground_force_vx	1_ground_force_vy	1_ground_force_vz	1_ground_force_px	1_ground_force_py	1_ground_force_pz	ground_torque_x	ground_torque_y	ground_torque_z	1_ground_torque_x	1_ground_torque_y	1_ground_torque_z
        0.6762733405	       76.4765538991	      335.3571745875	        4.9734746449	        0.4478586275	        0.0000000000	        0.0305467038	      -95.6807511192	       99.0564523108	      -35.4405722959	        1.0675944828	        0.0000000000	       -0.0498503866	        0.0000000000	        0.0000000000	        0.0000000000	        0.0000000000	        0.0000000000	        0.0000000000	
        0.6897988073	       42.8097101869	      232.2285052832	       12.4135460824	        0.4616668400	        0.0000000000	        0.0250547397	      -59.1296986611	      333.4862009607	       -8.1481919157	        1.0726927335	        0.0000000000	       -0.0479703746	        0.0000000000	        0.0000000000	        0.0000000000	        0.0000000000	        0.0000000000	        0.0000000000	
        0.7033242741	       29.3897465688	      192.3166958316	       14.4261275097	        0.4640331587	        0.0000000000	        0.0239991527	      -82.0786996660	      576.3777253093	        8.9134498884	        1.0752181863	        0.0000000000	       -0.0477994722	        0.0000000000	        0.0000000000	        0.0000000000	        0.0000000000	        0.0000000000	        0.0000000000	
        0.7168497409	       22.3357524004	      143.7214475145	       14.6135130629	        0.4643090046	        0.0000000000	        0.0241013442	     -138.7253118125	      784.3356940468	       17.6217446619	        1.0836475040	        0.0000000000	       -0.0495966846	        0.0000000000	        0.0000000000	        0.0000000000	        0.0000000000	        0.0000000000	        0.0000000000	
        0.7303752078	        4.2138866721	       75.3861296259	       16.3517551218	        0.4638656367	        0.0000000000	        0.0248971993	     -175.1419812709	      901.2683713767	       19.0552562405	        1.0928761642	        0.0000000000	       -0.0517468768	        0.0000000000	        0.0000000000	        0.0000000000	        0.0000000000	        0.0000000000	        0.0000000000	
        0.7439006746	      -15.1763435162	       17.9037091759	        5.4089973436	        0.4584940245	        0.0000000000	        0.0246922339	     -168.0219644580	      902.2261453924	       20.0807882467	        1.0988338181	        0.0000000000	       -0.0528791627	        0.0000000000	        0.0000000000	        0.0000000000	        0.0000000000	        0.0000000000	        0.0000000000	
        0.7574261414	      -15.0707400578	       12.1439777270	       -0.7897477982	        0.4675910042	        0.0000000000	        0.0222997064	     -149.3362549204	      845.6657494352	       17.8238558340	        1.1030544462	        0.0000000000	       -0.0535464446	        0.0000000000	        0.0000000000	        0.0000000000	        0.0000000000	        0.0000000000	        0.0000000000	
        0.7709516082	      -18.8116849383	       12.8564183229	       -0.9053163965	        0.4853009399	        0.0000000000	        0.0236216952	     -129.9622354483	      789.7356152404	       16.9678656759	        1.1068439908	        0.0000000000	       -0.0538505769	        0.0000000000	        0.0000000000	        0.0000000000	        0.0000000000	        0.0000000000	        0.0000000000	
        0.7844770750	      -20.3998785551	       12.3865376789	       -1.4554206388	        0.5085976671	        0.0000000000	        0.0251831963	     -114.5684131188	      745.3179263759	       17.9651323596	        1.1109236186	        0.0000000000	       -0.0538668441	        0.0000000000	        0.0000000000	        0.0000000000	        0.0000000000	        0.0000000000	        0.0000000000	
        0.7980025418	      -16.7910775771	        9.2773682732	       -1.3984650265	        0.0000000000	        0.0000000000	        0.0000000000	     -101.6754689994	      713.0755525537	       18.0239239338	        1.1154217511	        0.0000000000	       -0.0537438822	        0.0000000000	        0.0000000000	        0.0000000000	        0.0000000000	        0.0000000000	        0.0000000000	
        0.8115280086	      -12.3698342159	        6.4181258473	       -1.0804415343	        0.0000000000	        0.0000000000	        0.0000000000	      -91.7994597539	      689.6002225344	       18.1380767916	        1.1206240079	        0.0000000000	       -0.0534218937	        0.0000000000	        0.0000000000	        0.0000000000	        0.0000000000	        0.0000000000	        0.0000000000	
        0.8250534754	       -8.9665497238	        4.4788406295	       -0.7453196800	        0.0000000000	        0.0000000000	        0.0000000000	      -81.7791282878	      667.9468675775	       18.5772694520	        1.1258261946	        0.0000000000	       -0.0530809307	        0.0000000000	        0.0000000000	        0.0000000000	        0.0000000000	        0.0000000000	        0.0000000000	
        0.8385789422	       -6.7868619823	        3.2914191948	       -0.5315586894	        0.0000000000	        0.0000000000	        0.0000000000	      -71.3371695479	      647.3894402325	       19.0634549347	        1.1306596073	        0.0000000000	       -0.0528547457	        0.0000000000	        0.0000000000	        0.0000000000	        0.0000000000	        0.0000000000	        0.0000000000	
        0.8521044091	       -5.2066859027	        2.4670447940	       -0.3861167780	        0.0000000000	        0.0000000000	        0.0000000000	      -61.4446728829	      628.3660311959	       19.4949341841	        1.1352996961	        0.0000000000	       -0.0527253069	        0.0000000000	        0.0000000000	        0.0000000000	        0.0000000000	        0.0000000000	        0.0000000000	
        0.8656298759	       -3.8739131095	        1.8002436930	       -0.2700390443	        0.0000000000	        0.0000000000	        0.0000000000	      -52.7236995507	      611.9321026158	       19.6779413224	        1.1399452614	        0.0000000000	       -0.0526485272	        0.0000000000	        0.0000000000	        0.0000000000	        0.0000000000	        0.0000000000	        0.0000000000	
        0.8791553427	       -2.7775067865	        1.2681946304	       -0.1826623318	        0.0000000000	        0.0000000000	        0.0000000000	      -45.6113681346	      598.7017183838	       19.5545425936	        1.1446181182	        0.0000000000	       -0.0525905525	        0.0000000000	        0.0000000000	        0.0000000000	        0.0000000000	        0.0000000000	        0.0000000000	
        0.8926808095	       -1.9670026215	        0.8832191750	       -0.1226356540	        0.0000000000	        0.0000000000	        0.0000000000	      -40.4525563829	      589.4071967965	       19.3071233558	        1.1492350178	        0.0000000000	       -0.0525348271	        0.0000000000	        0.0000000000	        0.0000000000	        0.0000000000	        0.0000000000	        0.0000000000	
